<svg xmlns="http://www.w3.org/2000/svg" viewBox="0 0 32 32" fill="none">
  <rect width="32" height="32" rx="8" fill="#0F172A"/>
  <g transform="translate(2,2) scale(0.44)">
    <defs>
      <linearGradient id="g" x1="8" y1="8" x2="56" y2="56" gradientUnits="userSpaceOnUse">
        <stop stop-color="#2563EB"/>
        <stop offset="1" stop-color="#06B6D4"/>
      </linearGradient>
    </defs>
    <path d="M18 46C10 40 8 30 12 22C16 14 26 10 34 14" stroke="url(#g)" stroke-width="5" stroke-linecap="round" fill="none"/>
    <path d="M20 40C15 36 14 29 17 23C20 17 27 15 33 18" stroke="url(#g)" stroke-width="4.5" stroke-linecap="round" fill="none"/>
    <path d="M22 34C19 31 18 26 20 22C22 18 27 17 31 19" stroke="url(#g)" stroke-width="4" stroke-linecap="round" fill="none"/>
    <path d="M30 14V50" stroke="url(#g)" stroke-width="3.5" stroke-linecap="round"/>
    <path d="M33 16H50C53 16 55 18 55 21V43C55 46 53 48 50 48H33V16Z" fill="url(#g)"/>
  </g>
</svg>
