<svg xmlns="http://www.w3.org/2000/svg" viewBox="0 0 64 64" fill="none" role="img" aria-label="LexiCoil">
  <defs>
    <linearGradient id="lc-grad" x1="8" y1="8" x2="56" y2="56" gradientUnits="userSpaceOnUse">
      <stop stop-color="#2563EB"/>
      <stop offset="1" stop-color="#06B6D4"/>
    </linearGradient>
  </defs>
  <!-- Coil (left page) -->
  <path d="M18 46C10 40 8 30 12 22C16 14 26 10 34 14" stroke="url(#lc-grad)" stroke-width="5" stroke-linecap="round" fill="none"/>
  <path d="M20 40C15 36 14 29 17 23C20 17 27 15 33 18" stroke="url(#lc-grad)" stroke-width="4.5" stroke-linecap="round" fill="none"/>
  <path d="M22 34C19 31 18 26 20 22C22 18 27 17 31 19" stroke="url(#lc-grad)" stroke-width="4" stroke-linecap="round" fill="none"/>
  <!-- Book spine -->
  <path d="M30 14V50" stroke="url(#lc-grad)" stroke-width="3.5" stroke-linecap="round"/>
  <!-- Right page -->
  <path d="M33 16H50C53 16 55 18 55 21V43C55 46 53 48 50 48H33V16Z" fill="url(#lc-grad)"/>
  <path d="M37 24H48M37 30H46M37 36H44" stroke="#fff" stroke-width="2.2" stroke-linecap="round" opacity="0.9"/>
</svg>
