<svg xmlns="http://www.w3.org/2000/svg" viewBox="0 0 64 64" fill="none" role="img" aria-label="LexiCoil">
  <path d="M18 46C10 40 8 30 12 22C16 14 26 10 34 14" stroke="#0F172A" stroke-width="5" stroke-linecap="round" fill="none"/>
  <path d="M20 40C15 36 14 29 17 23C20 17 27 15 33 18" stroke="#0F172A" stroke-width="4.5" stroke-linecap="round" fill="none"/>
  <path d="M22 34C19 31 18 26 20 22C22 18 27 17 31 19" stroke="#0F172A" stroke-width="4" stroke-linecap="round" fill="none"/>
  <path d="M30 14V50" stroke="#0F172A" stroke-width="3.5" stroke-linecap="round"/>
  <path d="M33 16H50C53 16 55 18 55 21V43C55 46 53 48 50 48H33V16Z" fill="#0F172A"/>
</svg>
