<svg xmlns="http://www.w3.org/2000/svg" viewBox="0 0 320 64" fill="none" role="img" aria-label="LexiCoil">
  <g transform="translate(0,0)">
    <path d="M18 46C10 40 8 30 12 22C16 14 26 10 34 14" stroke="#fff" stroke-width="5" stroke-linecap="round" fill="none"/>
    <path d="M20 40C15 36 14 29 17 23C20 17 27 15 33 18" stroke="#fff" stroke-width="4.5" stroke-linecap="round" fill="none"/>
    <path d="M22 34C19 31 18 26 20 22C22 18 27 17 31 19" stroke="#fff" stroke-width="4" stroke-linecap="round" fill="none"/>
    <path d="M30 14V50" stroke="#fff" stroke-width="3.5" stroke-linecap="round"/>
    <path d="M33 16H50C53 16 55 18 55 21V43C55 46 53 48 50 48H33V16Z" fill="#fff"/>
    <path d="M37 24H48M37 30H46M37 36H44" stroke="#0F172A" stroke-width="2.2" stroke-linecap="round" opacity="0.85"/>
  </g>
  <text x="76" y="42" font-family="Poppins, system-ui, sans-serif" font-size="28" font-weight="700" fill="#FFFFFF">LexiCoil</text>
</svg>
